<?xml version="1.0" encoding="UTF-8"?>
<svg width="245px" height="55px" viewBox="0 0 245 55" version="1.1" xmlns="http://www.w3.org/2000/svg" xmlns:xlink="http://www.w3.org/1999/xlink">
    <!-- Generator: Sketch 46.2 (44496) - http://www.bohemiancoding.com/sketch -->
    <title>Group 2</title>
    <desc>Created with Sketch.</desc>
    <defs></defs>
    <g id="Page-1" stroke="none" stroke-width="1" fill="none" fill-rule="evenodd">
        <g id="Group-2" transform="translate(0.000000, -8.000000)">
            <g id="Group" transform="translate(0.352222, 20.235980)">
                <g id="logo" transform="translate(0.000000, 2.879121)" fill-rule="nonzero">
                    <rect id="Rectangle-3" fill="#AC6DDB" x="0" y="13.1868132" width="4.3956044" height="12.0879121"></rect>
                    <rect id="Rectangle-3" fill="#FF6967" x="5.49450549" y="7.69230769" width="4.3956044" height="17.5824176"></rect>
                    <rect id="Rectangle-3" fill="#FFC965" x="12.0879121" y="0" width="4.3956044" height="25.2747253"></rect>
                    <rect id="Rectangle-3" fill="#3FCEC5" x="17.5824176" y="5.49450549" width="4.3956044" height="19.7802198"></rect>
                    <rect id="Rectangle-3" fill="#1A285D" x="24.1758242" y="8.79120879" width="4.3956044" height="16.4835165"></rect>
                    <polygon id="Line" fill="#FFFFFF" points="24.1758242 11.2516921 28.5714286 11.2516921 28.5714286 10.7263298 24.1758242 10.7263298"></polygon>
                    <polygon id="Line" fill="#FFFFFF" points="17.5824176 6.85608775 21.978022 6.85608775 21.978022 6.33072543 17.5824176 6.33072543"></polygon>
                    <polygon id="Line" fill="#FFFFFF" points="12.0879121 1.36158226 16.4835165 1.36158226 16.4835165 0.836219939 12.0879121 0.836219939"></polygon>
                    <polygon id="Line" fill="#FFFFFF" points="6.59340659 9.05388995 10.989011 9.05388995 10.989011 8.52852763 6.59340659 8.52852763"></polygon>
                    <polygon id="Line" fill="#FFFFFF" points="0 14.5483954 4.3956044 14.5483954 4.3956044 14.0230331 0 14.0230331"></polygon>
                </g>
                <g id="LitCharts" transform="translate(36.189947, 0.568874)" fill="#00A7F7">
                    <path d="M0.772,3.29723077 L6.064,3.29723077 L6.064,22.3052308 L15.352,22.3052308 L15.352,26.7692308 L0.772,26.7692308 L0.772,3.29723077 Z M21.616,6.28523077 C20.7279956,6.28523077 19.9960029,6.02723335 19.42,5.51123077 C18.8439971,4.99522819 18.556,4.32923485 18.556,3.51323077 C18.556,2.69722669 18.8439971,2.03723329 19.42,1.53323077 C19.9960029,1.02922825 20.7279956,0.777230769 21.616,0.777230769 C22.5280046,0.777230769 23.2659972,1.02922825 23.83,1.53323077 C24.3940028,2.03723329 24.676,2.69722669 24.676,3.51323077 C24.676,4.32923485 24.3940028,4.99522819 23.83,5.51123077 C23.2659972,6.02723335 22.5280046,6.28523077 21.616,6.28523077 Z M18.988,8.91323077 L24.28,8.91323077 L24.28,26.7692308 L18.988,26.7692308 L18.988,8.91323077 Z M29.644,13.0532308 L27.196,13.0532308 L27.196,9.12923077 L29.932,8.91323077 L30.544,4.16123077 L34.936,4.16123077 L34.936,8.91323077 L39.22,8.91323077 L39.22,13.0532308 L34.936,13.0532308 L34.936,20.2172308 C34.936,21.2252358 35.1459979,21.9512285 35.566,22.3952308 C35.9860021,22.839233 36.5439965,23.0612308 37.24,23.0612308 C37.5280014,23.0612308 37.8219985,23.0252311 38.122,22.9532308 C38.4220015,22.8812304 38.6919988,22.7972312 38.932,22.7012308 L39.76,26.5532308 C39.2799976,26.6972315 38.7160032,26.84123 38.068,26.9852308 C37.4199968,27.1292315 36.6640043,27.2012308 35.8,27.2012308 C34.6959945,27.2012308 33.7540039,27.0332324 32.974,26.6972308 C32.1939961,26.3612291 31.5580025,25.8932338 31.066,25.2932308 C30.5739975,24.6932278 30.2140011,23.967235 29.986,23.1152308 C29.7579989,22.2632265 29.644,21.3212359 29.644,20.2892308 L29.644,13.0532308 Z M42.028,15.1772308 C42.028,13.233221 42.327997,11.4992384 42.928,9.97523077 C43.528003,8.45122315 44.3379949,7.16123605 45.358,6.10523077 C46.3780051,5.04922549 47.5659932,4.24523353 48.922,3.69323077 C50.2780068,3.14122801 51.7119924,2.86523077 53.224,2.86523077 C54.6880073,2.86523077 56.0139941,3.17122771 57.202,3.78323077 C58.3900059,4.39523383 59.379996,5.10922669 60.172,5.92523077 L57.256,9.20123077 C56.655997,8.64922801 56.0500031,8.21723233 55.438,7.90523077 C54.8259969,7.59322921 54.1120041,7.43723077 53.296,7.43723077 C52.4799959,7.43723077 51.7180035,7.61122903 51.01,7.95923077 C50.3019965,8.30723251 49.6840026,8.80522753 49.156,9.45323077 C48.6279974,10.101234 48.2140015,10.8932261 47.914,11.8292308 C47.6139985,12.7652354 47.464,13.8212249 47.464,14.9972308 C47.464,17.4212429 47.9799948,19.2992241 49.012,20.6312308 C50.0440052,21.9632374 51.4239914,22.6292308 53.152,22.6292308 C54.1120048,22.6292308 54.9519964,22.4372327 55.672,22.0532308 C56.3920036,21.6692288 57.0399971,21.1652339 57.616,20.5412308 L60.532,23.7452308 C59.5479951,24.8972365 58.4260063,25.7612279 57.166,26.3372308 C55.9059937,26.9132336 54.5440073,27.2012308 53.08,27.2012308 C51.5679924,27.2012308 50.1400067,26.9432333 48.796,26.4272308 C47.4519933,25.9112282 46.276005,25.1492358 45.268,24.1412308 C44.259995,23.1332257 43.4680029,21.8792383 42.892,20.3792308 C42.3159971,18.8792233 42.028,17.1452406 42.028,15.1772308 Z M63.664,1.53323077 L68.956,1.53323077 L68.956,7.72523077 L68.704,10.9292308 C69.3760034,10.3292278 70.1559956,9.77123335 71.044,9.25523077 C71.9320044,8.73922819 72.9879939,8.48123077 74.212,8.48123077 C76.1560097,8.48123077 77.5659956,9.11722441 78.442,10.3892308 C79.3180044,11.6612371 79.756,13.4252195 79.756,15.6812308 L79.756,26.7692308 L74.464,26.7692308 L74.464,16.3652308 C74.464,15.0692243 74.2900017,14.1812332 73.942,13.7012308 C73.5939983,13.2212284 73.0360038,12.9812308 72.268,12.9812308 C71.5959966,12.9812308 71.0200024,13.1312293 70.54,13.4312308 C70.0599976,13.7312323 69.5320029,14.157228 68.956,14.7092308 L68.956,26.7692308 L63.664,26.7692308 L63.664,1.53323077 Z M83.572,21.8012308 C83.572,19.9292214 84.3639921,18.465236 85.948,17.4092308 C87.5320079,16.3532255 90.0879824,15.6452326 93.616,15.2852308 C93.5679998,14.4932268 93.3280022,13.8632331 92.896,13.3952308 C92.4639978,12.9272284 91.7680048,12.6932308 90.808,12.6932308 C90.0399962,12.6932308 89.2720038,12.8372293 88.504,13.1252308 C87.7359962,13.4132322 86.9200043,13.8092282 86.056,14.3132308 L84.184,10.8212308 C85.3360058,10.1252273 86.5419937,9.56123293 87.802,9.12923077 C89.0620063,8.69722861 90.3999929,8.48123077 91.816,8.48123077 C94.1200115,8.48123077 95.8779939,9.13522423 97.09,10.4432308 C98.3020061,11.7512373 98.908,13.785217 98.908,16.5452308 L98.908,26.7692308 L94.588,26.7692308 L94.192,24.9332308 L94.084,24.9332308 C93.3159962,25.6052341 92.5060043,26.1512287 91.654,26.5712308 C90.8019957,26.9912329 89.872005,27.2012308 88.864,27.2012308 C88.0479959,27.2012308 87.3160032,27.0632321 86.668,26.7872308 C86.0199968,26.5112294 85.4680023,26.1272332 85.012,25.6352308 C84.5559977,25.1432283 84.2020013,24.573234 83.95,23.9252308 C83.6979987,23.2772275 83.572,22.5692346 83.572,21.8012308 Z M88.612,21.4052308 C88.612,21.9812336 88.7979981,22.4072294 89.17,22.6832308 C89.5420019,22.9592321 90.0399969,23.0972308 90.664,23.0972308 C91.2880031,23.0972308 91.8159978,22.9652321 92.248,22.7012308 C92.6800022,22.4372294 93.1359976,22.0652332 93.616,21.5852308 L93.616,18.4532308 C91.7199905,18.7172321 90.4120036,19.1012282 89.692,19.6052308 C88.9719964,20.1092333 88.612,20.7092273 88.612,21.4052308 Z M103.444,8.91323077 L107.764,8.91323077 L108.124,12.0452308 L108.268,12.0452308 C108.916003,10.8212246 109.695995,9.92123365 110.608,9.34523077 C111.520005,8.76922789 112.431995,8.48123077 113.344,8.48123077 C113.848003,8.48123077 114.261998,8.51123047 114.586,8.57123077 C114.910002,8.63123107 115.203999,8.72123017 115.468,8.84123077 L114.604,13.4132308 C114.267998,13.3172303 113.956001,13.245231 113.668,13.1972308 C113.379999,13.1492305 113.044002,13.1252308 112.66,13.1252308 C111.987997,13.1252308 111.286004,13.3652284 110.554,13.8452308 C109.821996,14.3252332 109.216002,15.1772246 108.736,16.4012308 L108.736,26.7692308 L103.444,26.7692308 L103.444,8.91323077 Z M119.492,13.0532308 L117.044,13.0532308 L117.044,9.12923077 L119.78,8.91323077 L120.392,4.16123077 L124.784,4.16123077 L124.784,8.91323077 L129.068,8.91323077 L129.068,13.0532308 L124.784,13.0532308 L124.784,20.2172308 C124.784,21.2252358 124.993998,21.9512285 125.414,22.3952308 C125.834002,22.839233 126.391997,23.0612308 127.088,23.0612308 C127.376001,23.0612308 127.669998,23.0252311 127.97,22.9532308 C128.270002,22.8812304 128.539999,22.7972312 128.78,22.7012308 L129.608,26.5532308 C129.127998,26.6972315 128.564003,26.84123 127.916,26.9852308 C127.267997,27.1292315 126.512004,27.2012308 125.648,27.2012308 C124.543994,27.2012308 123.602004,27.0332324 122.822,26.6972308 C122.041996,26.3612291 121.406002,25.8932338 120.914,25.2932308 C120.421998,24.6932278 120.062001,23.967235 119.834,23.1152308 C119.605999,22.2632265 119.492,21.3212359 119.492,20.2892308 L119.492,13.0532308 Z M134.352,21.4052308 C135.168004,22.0292339 135.947996,22.4972292 136.692,22.8092308 C137.436004,23.1212323 138.191996,23.2772308 138.96,23.2772308 C139.752004,23.2772308 140.327998,23.1452321 140.688,22.8812308 C141.048002,22.6172294 141.228,22.2452332 141.228,21.7652308 C141.228,21.4772293 141.126001,21.2192319 140.922,20.9912308 C140.717999,20.7632296 140.442002,20.5532317 140.094,20.3612308 C139.745998,20.1692298 139.356002,19.9952315 138.924,19.8392308 C138.491998,19.68323 138.048002,19.5092317 137.592,19.3172308 C137.039997,19.1012297 136.488003,18.8492322 135.936,18.5612308 C135.383997,18.2732293 134.880002,17.9192329 134.424,17.4992308 C133.967998,17.0792287 133.596001,16.5872336 133.308,16.0232308 C133.019999,15.4592279 132.876,14.8052345 132.876,14.0612308 C132.876,13.2452267 133.037998,12.4892342 133.362,11.7932308 C133.686002,11.0972273 134.147997,10.5092332 134.748,10.0292308 C135.348003,9.54922837 136.067996,9.17123215 136.908,8.89523077 C137.748004,8.61922939 138.683995,8.48123077 139.716,8.48123077 C141.084007,8.48123077 142.283995,8.71522843 143.316,9.18323077 C144.348005,9.65123311 145.247996,10.1732279 146.016,10.7492308 L143.64,13.9172308 C142.991997,13.4372284 142.356003,13.0652321 141.732,12.8012308 C141.107997,12.5372294 140.484003,12.4052308 139.86,12.4052308 C138.515993,12.4052308 137.844,12.8732261 137.844,13.8092308 C137.844,14.0972322 137.939999,14.3432297 138.132,14.5472308 C138.324001,14.7512318 138.581998,14.9372299 138.906,15.1052308 C139.230002,15.2732316 139.601998,15.43523 140.022,15.5912308 C140.442002,15.7472315 140.879998,15.9092299 141.336,16.0772308 C141.912003,16.2932318 142.481997,16.5392294 143.046,16.8152308 C143.610003,17.0912321 144.125998,17.4332287 144.594,17.8412308 C145.062002,18.2492328 145.439999,18.7472278 145.728,19.3352308 C146.016001,19.9232337 146.16,20.6252267 146.16,21.4412308 C146.16,22.2572348 146.004002,23.0132273 145.692,23.7092308 C145.379998,24.4052342 144.912003,25.0112282 144.288,25.5272308 C143.663997,26.0432333 142.896005,26.4512293 141.984,26.7512308 C141.071995,27.0512323 140.016006,27.2012308 138.816,27.2012308 C137.639994,27.2012308 136.434006,26.973233 135.198,26.5172308 C133.961994,26.0612285 132.888005,25.4612345 131.976,24.7172308 L134.352,21.4052308 Z"></path>
                </g>
            </g>
            <g id="A-plus-letter-emblem-998845222a2401b3e06baaf01b08575ddd08e9db9393531fb51c9fd12180e456" transform="translate(192.222656, 0.710938)">
                <g id="Oval" transform="translate(0.058206, 9.000000)" fill-rule="nonzero">
                    <g id="path-1-link">
                        <ellipse id="path-1" cx="25.0949427" cy="25.4845052" rx="25.0949427" ry="25.2166667"></ellipse>
                    </g>
                    <g id="path-1-link" fill="#FFFFFF">
                        <ellipse id="path-1" cx="25.0949427" cy="25.4845052" rx="25.0949427" ry="25.2166667"></ellipse>
                    </g>
                    <g id="path-1-link" fill="#FE6C63">
                        <path d="M25.0949427,52.3886719 C10.3015753,52.3886719 -1.6875,40.3414432 -1.6875,25.4845052 C-1.6875,10.6275672 10.3015753,-1.4196615 25.0949427,-1.4196615 C39.8883101,-1.4196615 51.8773854,10.6275672 51.8773854,25.4845052 C51.8773854,40.3414432 39.8883101,52.3886719 25.0949427,52.3886719 Z M25.0949427,49.0136719 C38.0206836,49.0136719 48.5023854,38.4811281 48.5023854,25.4845052 C48.5023854,12.4878823 38.0206836,1.9553385 25.0949427,1.9553385 C12.1692018,1.9553385 1.6875,12.4878823 1.6875,25.4845052 C1.6875,38.4811281 12.1692018,49.0136719 25.0949427,49.0136719 Z" id="path-1"></path>
                    </g>
                </g>
                <path d="M28.2694195,44.8700872 C28.2893091,44.8700872 28.3191431,44.8601425 28.3589223,44.8402529 C28.3987015,44.8203633 28.4285354,44.8104187 28.448425,44.8104187 L28.448425,44.6910817 C28.4285354,44.6711921 28.3987015,44.6513028 28.3589223,44.6314132 C28.3191431,44.6115235 28.2893091,44.5916342 28.2694195,44.5717446 C28.2495299,44.551855 28.204779,44.551855 28.1351654,44.5717446 C28.0655517,44.5916342 28.0307455,44.5916342 28.0307455,44.5717446 C28.0307455,44.551855 28.0208008,44.5220211 28.0009112,44.4822419 L27.9412427,44.3629049 C27.9213531,44.3430153 27.8915191,44.2684304 27.8517399,44.139148 C27.8119607,44.0098655 27.7920714,43.9352807 27.7920714,43.9153911 C27.7522922,43.8756118 27.687652,43.756276 27.5981488,43.55738 C27.5086456,43.358484 27.4440053,43.2391482 27.4042261,43.199369 C27.4042261,43.1794793 27.3793645,43.1247838 27.3296405,43.0352806 C27.2799165,42.9457773 27.2550549,42.8910818 27.2550549,42.8711922 C27.2550549,42.8513026 27.2351656,42.796607 27.1953863,42.7071038 L27.0760493,42.4385955 C27.0362701,42.3490923 27.0014638,42.2595904 26.9716294,42.1700872 C26.941795,42.080584 26.9169334,42.0258884 26.8970438,42.0059988 C26.8771542,41.9662196 26.8473202,41.8767177 26.807541,41.7374905 C26.7677618,41.5982633 26.7230109,41.4490935 26.6732869,41.2899767 C26.6235629,41.1308599 26.5738396,40.9767178 26.5241156,40.8275457 C26.4743916,40.6783737 26.4395853,40.5640102 26.4196957,40.4844518 C26.3998061,40.4844518 26.3699722,40.4148393 26.330193,40.275612 L26.2705245,40.0966065 C26.2705245,40.0568273 26.2556075,39.9921871 26.2257731,39.9026839 C26.1959387,39.8131807 26.1710771,39.7485404 26.1511875,39.7087612 L26.1511875,39.6192585 C26.1312978,39.6192585 26.1064362,39.6043415 26.0766018,39.5745071 L26.0020162,39.4999214 C25.9821266,39.4601422 25.9622373,39.3855573 25.9423477,39.2761645 C25.9224581,39.1667717 25.9125134,39.0921868 25.9125134,39.0524076 L25.9125134,38.8137336 C25.8926238,38.7739544 25.8279836,38.7142865 25.7185908,38.6347281 C25.609198,38.5551697 25.5346131,38.4955017 25.4948339,38.4557225 C25.4550547,38.4159433 25.3705251,38.3711924 25.2412427,38.3214684 C25.1119603,38.2717444 25.0373754,38.2468828 25.0174858,38.2468828 C24.9777066,38.2468828 24.8533984,38.281689 24.6445576,38.3513027 C24.4357168,38.4209163 24.3213533,38.4557225 24.3014637,38.4557225 L24.1224582,38.4557225 C24.1025686,38.4557225 24.0677623,38.4258886 24.0180383,38.3662198 C23.9683143,38.306551 23.9235633,38.2667724 23.8837841,38.2468828 L23.6451101,38.2468828 C23.6053309,38.2667724 23.5406907,38.306551 23.4511875,38.3662198 C23.3616842,38.4258886 23.297044,38.4557225 23.2572648,38.4557225 C23.2373752,38.4557225 23.157818,38.4606949 23.0185908,38.4706397 C22.8793636,38.4805845 22.779917,38.4855568 22.7202482,38.4855568 L22.3622372,38.4855568 C22.2826788,38.4855568 22.2130662,38.4756121 22.1533974,38.4557225 C22.1136182,38.4557225 22.0390333,38.4358332 21.9296405,38.396054 C21.8202477,38.3562748 21.7556074,38.3363855 21.7357178,38.3363855 C21.7158282,38.3363855 21.6710773,38.3562748 21.6014637,38.396054 C21.5318501,38.4358332 21.4870992,38.4557225 21.4672096,38.4557225 C21.4473199,38.4756121 21.3478734,38.4805845 21.168867,38.4706397 C20.9898606,38.4606949 20.8804694,38.4557225 20.8406902,38.4557225 C20.8208006,38.4557225 20.766105,38.4706395 20.6766018,38.5004739 C20.5870986,38.5303083 20.5224584,38.5452253 20.4826792,38.5452253 C20.4429,38.5651149 20.3583704,38.5700872 20.229088,38.5601424 C20.0998056,38.5501976 20.0252207,38.5452253 20.0053311,38.5452253 C19.9257727,38.5651149 19.7666583,38.5949489 19.527983,38.6347281 C19.2893078,38.6745073 19.140138,38.6943966 19.0804692,38.6943966 C19.0605796,38.6943966 19.0009117,38.6745073 18.9014637,38.6347281 C18.8020157,38.5949489 18.7324031,38.5651149 18.6926239,38.5452253 L18.6031212,38.5452253 L18.4539499,38.6943966 C18.4141707,38.7142862 18.3445581,38.7142862 18.2451101,38.6943966 C18.1456621,38.674507 18.0859942,38.674507 18.0661046,38.6943966 C18.0263254,38.7142862 17.9616851,38.7490925 17.8721819,38.7988165 C17.7826787,38.8485405 17.7279831,38.8932914 17.7080935,38.9330706 C17.6882039,38.9529602 17.6683146,39.0126281 17.648425,39.1120761 C17.6285354,39.2115241 17.6185908,39.2811367 17.6185908,39.3209159 C17.5788116,39.3209159 17.5688669,39.3159436 17.5887565,39.3059988 C17.6086461,39.296054 17.5987015,39.2910817 17.5589223,39.2910817 L17.4246681,39.1568275 C17.3749441,39.1071035 17.3500825,39.0722972 17.3500825,39.0524076 C17.3301929,39.032518 17.3202482,38.9877671 17.3202482,38.9181535 C17.3202482,38.8485399 17.3301929,38.8137336 17.3500825,38.8137336 C17.3301929,38.8137336 17.2854419,38.8336229 17.2158283,38.8734021 C17.1462147,38.9131813 17.1014638,38.9330706 17.0815742,38.9330706 L16.9622372,38.8137336 L16.9025687,38.6943966 C16.8627895,38.6148382 16.8429002,38.5651149 16.8429002,38.5452253 C16.8230106,38.5452253 16.8080936,38.5501976 16.7981488,38.5601424 C16.788204,38.5700872 16.773287,38.5750596 16.7533974,38.5750596 C16.7335078,38.5949492 16.7036738,38.6048938 16.6638946,38.6048938 C16.6638946,38.644673 16.6738393,38.6844516 16.6937289,38.7242308 C16.7136185,38.76401 16.7036738,38.793844 16.6638946,38.8137336 C16.6638946,38.8336232 16.65395,38.8535125 16.6340604,38.8734021 C16.5942812,38.9131813 16.5644472,38.9330706 16.5445576,38.9330706 C16.5047784,38.9728498 16.4103042,39.0474347 16.2611322,39.1568275 C16.1119602,39.2662203 16.0075413,39.3408052 15.9478725,39.3805844 L15.9478725,39.4999214 L16.007541,39.678927 C16.0274306,39.7385958 16.0473199,39.788319 16.0672096,39.8280982 L16.0672096,39.9474353 C16.0672096,39.9673249 16.0324033,40.0071035 15.9627897,40.0667723 C15.8931761,40.1264411 15.8583698,40.1662197 15.8583698,40.1861093 C15.8583698,40.2258885 15.8384805,40.3004734 15.7987013,40.4098662 C15.7589221,40.519259 15.7390328,40.5938439 15.7390328,40.6336231 C15.6992536,40.6336231 15.6793642,40.6236784 15.6793642,40.6037888 C15.5998058,40.5640096 15.5600272,40.524231 15.5600272,40.4844518 L15.5600272,40.1861093 L14.9633421,39.6192585 L14.7843366,39.6192585 L14.6948339,39.7087612 C14.6550547,39.7485404 14.6252207,39.8479869 14.6053311,40.0071038 C14.5854415,40.1662206 14.5655522,40.2656671 14.5456626,40.3054463 C14.525773,40.3253359 14.5009114,40.3899761 14.471077,40.499369 C14.4412426,40.6087618 14.4263256,40.6833467 14.4263256,40.7231259 L14.4859941,40.7529601 C14.5058837,40.7529601 14.525773,40.7430155 14.5456626,40.7231259 C14.5655522,40.7231259 14.5854415,40.7082089 14.6053311,40.6783745 C14.6252207,40.6485401 14.6550547,40.6236784 14.6948339,40.6037888 C14.6948339,40.5640096 14.7346125,40.4943971 14.8141709,40.3949491 C14.8937293,40.2955011 14.9434525,40.2258885 14.9633421,40.1861093 C14.9832317,40.2059989 15.0031211,40.2557221 15.0230107,40.3352806 C15.0429003,40.414839 15.0528449,40.4645622 15.0528449,40.4844518 C15.0329553,40.524231 14.9882044,40.6037882 14.9185908,40.7231259 C14.8489772,40.8424635 14.8042262,40.9220207 14.7843366,40.9617999 L14.7843366,41.8568275 C14.7843366,41.8966067 14.8141706,42.0109702 14.8738394,42.1999214 C14.9335082,42.3888727 14.9633421,42.5032362 14.9633421,42.5430154 L14.9633421,42.7816894 C14.9036733,42.7816894 14.8091991,42.7966064 14.6799167,42.8264408 C14.5506343,42.8562752 14.4661048,42.8711922 14.4263256,42.8711922 C14.3865464,42.8910818 14.3219061,42.9308604 14.2324029,42.9905292 C14.1428997,43.050198 14.0782595,43.0899766 14.0384803,43.1098662 L14.0384803,42.7816894 L13.9788118,42.8413579 C13.9589222,42.8612475 13.9390329,42.8711922 13.9191433,42.8711922 L13.889309,42.8711922 L13.769972,42.9308607 C13.7301928,42.9507503 13.7003588,42.9606949 13.6804692,42.9606949 C13.6605796,43.0203637 13.635718,43.1098656 13.6058836,43.2292032 C13.5760492,43.3485408 13.5611322,43.428098 13.5611322,43.4678772 C13.5810218,43.4479876 13.6357174,43.438043 13.7252206,43.438043 C13.8147238,43.438043 13.8694194,43.4479876 13.889309,43.4678772 C13.9290882,43.4678772 13.9887561,43.4927389 14.0683145,43.5424629 C14.1478729,43.5921869 14.1876515,43.6369378 14.1876515,43.676717 C14.1876515,43.7164962 14.1429006,43.7811365 14.0533974,43.8706397 C13.9638942,43.9601429 13.9091986,44.0048938 13.889309,44.0048938 C13.889309,44.044673 13.859475,44.1242302 13.7998062,44.2435678 C13.7401374,44.3629055 13.7003588,44.432518 13.6804692,44.4524076 C13.6605796,44.4921868 13.6158287,44.5369378 13.5462151,44.5866618 C13.4766015,44.6363858 13.4417952,44.6711921 13.4417952,44.6910817 L13.1732869,44.6910817 C13.1533973,44.6711921 13.0489785,44.6513028 12.8600272,44.6314132 C12.671076,44.6115235 12.5567125,44.5916342 12.5169333,44.5717446 C12.4970437,44.5717446 12.4373758,44.576717 12.3379278,44.5866618 C12.2384798,44.5966066 12.1788119,44.5916342 12.1589223,44.5717446 C12.1589223,44.551855 12.1340606,44.5220211 12.0843366,44.4822419 C12.0346126,44.4424627 12.009751,44.4026841 12.009751,44.3629049 L12.009751,43.676717 C12.009751,43.6369378 11.9749447,43.5573806 11.9053311,43.438043 C11.8357175,43.3187054 11.7909666,43.2391482 11.771077,43.199369 L11.771077,42.7816894 C11.771077,42.7419102 11.7909663,42.67727 11.8307455,42.5877667 C11.8705247,42.4982635 11.890414,42.4336233 11.890414,42.3938441 C11.9103036,42.3739545 11.9351652,42.3142866 11.9649996,42.2148386 C11.994834,42.1153906 12.009751,42.045778 12.009751,42.0059988 L12.1589223,41.9761645 L12.2185908,42.0059988 L12.2782593,42.0059988 C12.3180385,42.0059988 12.3627894,42.0209158 12.4125134,42.0507502 C12.4622374,42.0805846 12.4970437,42.0955015 12.5169333,42.0955015 C12.5368229,42.0557223 12.5666569,41.9662205 12.6064361,41.8269933 C12.6462153,41.687766 12.6661046,41.5982642 12.6661046,41.558485 C12.6661046,41.5385954 12.6412429,41.4938444 12.5915189,41.4242308 C12.5417949,41.3546172 12.5169333,41.3098663 12.5169333,41.2899767 C12.5169333,41.2700871 12.5616842,41.1955022 12.6511875,41.0662198 C12.7406907,40.9369374 12.7953862,40.8623525 12.8152758,40.8424629 C12.8152758,40.8225733 12.8003589,40.7678777 12.7705245,40.6783745 C12.7406901,40.5888713 12.7058838,40.524231 12.6661046,40.4844518 C12.6263254,40.4645622 12.5964914,40.4446729 12.5766018,40.4247833 L12.5169333,40.3651148 L12.5169333,40.1861093 C12.5169333,40.1662197 12.5368226,40.1463304 12.5766018,40.1264408 C12.616381,40.1065512 12.646215,40.0966065 12.6661046,40.0966065 C12.7058838,40.0767169 12.770524,40.0518553 12.8600272,40.0220209 C12.9495304,39.9921865 13.004226,39.9673249 13.0241156,39.9474353 L13.0241156,39.7087612 C13.004226,39.6888716 12.9644474,39.6540653 12.9047786,39.6043413 C12.8451098,39.5546173 12.8152758,39.519811 12.8152758,39.4999214 C12.7953862,39.4800318 12.7854416,39.4601425 12.7854416,39.4402529 L12.7854416,39.3805844 L12.8152758,39.2910817 C12.8152758,39.2513025 12.8252205,39.1717452 12.8451101,39.0524076 C12.8649997,38.93307 12.884889,38.8535128 12.9047786,38.8137336 C12.9047786,38.793844 12.9196956,38.7540654 12.94953,38.6943966 L13.0241156,38.5452253 C13.0440052,38.5850045 13.1086455,38.6496447 13.2180383,38.739148 C13.3274311,38.8286512 13.402016,38.8932914 13.4417952,38.9330706 L13.6804692,38.9330706 C13.6804692,38.8734018 13.6953862,38.7888723 13.7252206,38.6794794 C13.755055,38.5700866 13.7799166,38.4955017 13.7998062,38.4557225 L13.889309,38.3363855 C13.988757,38.2369375 14.0384803,38.1772696 14.0384803,38.15738 C14.0583699,38.0778216 14.0683145,37.9385965 14.0683145,37.7397004 C14.0683145,37.5408044 14.0583699,37.4115239 14.0384803,37.3518551 C14.1379283,37.3120759 14.1876515,37.2623527 14.1876515,37.2026839 C14.2075411,37.1827943 14.2274304,37.1579326 14.24732,37.1280982 C14.2672096,37.0982638 14.2970436,37.0634575 14.3368228,37.0236783 C14.376602,36.9838991 14.406436,36.9441205 14.4263256,36.9043413 C14.4263256,36.8844517 14.4114086,36.8397008 14.3815742,36.7700872 C14.3517398,36.7004736 14.3368228,36.6557226 14.3368228,36.635833 C14.3169332,36.6159434 14.2870993,36.5513032 14.24732,36.4419104 C14.2075408,36.3325176 14.1876515,36.2579327 14.1876515,36.2181535 L14.1876515,36.0093137 C14.1876515,36.0292033 14.2075408,36.0490926 14.24732,36.0689822 C14.2870993,36.0888718 14.3169332,36.0988165 14.3368228,36.0988165 C14.376602,36.1385957 14.4561592,36.1982636 14.5754968,36.277822 C14.6948345,36.3573804 14.764447,36.4071037 14.7843366,36.4269933 L14.9633421,36.4269933 C14.9832317,36.3872141 15.0230104,36.3474354 15.0826792,36.3076562 C15.142348,36.267877 15.1920712,36.2380431 15.2318504,36.2181535 C15.2318504,36.1783743 15.2219058,36.0839001 15.2020162,35.9347281 C15.1821266,35.7855561 15.1920712,35.6910819 15.2318504,35.6513027 C15.2318504,35.6314131 15.2417951,35.5966068 15.2616847,35.5468828 C15.2815743,35.4971588 15.2915189,35.4623525 15.2915189,35.4424629 C15.2915189,35.4225733 15.2964913,35.3977116 15.3064361,35.3678772 C15.3163809,35.3380428 15.3213532,35.3131812 15.3213532,35.2932916 L15.2915189,35.2037888 L15.2318504,35.1142861 C15.1920712,35.0943965 15.1721819,35.0645625 15.1721819,35.0247833 L15.4406902,35.0247833 C15.4804694,35.0048937 15.5252204,34.9601428 15.5749444,34.8905292 C15.6246684,34.8209156 15.6594746,34.7761646 15.6793642,34.756275 C15.6793642,34.7363854 15.7091982,34.6319666 15.768867,34.4430154 C15.8285358,34.2540641 15.8583698,34.1397006 15.8583698,34.0999214 C15.8583698,34.0601422 15.8832314,33.9855573 15.9329554,33.8761645 C15.9826794,33.7667717 16.0274303,33.6921868 16.0672096,33.6524076 L16.1268781,33.5927391 C16.1467677,33.5728495 16.1567123,33.5529602 16.1567123,33.5330706 L16.4550549,33.8910817 L16.6638946,33.6524076 L16.6638946,32.399369 L16.8429002,32.2800319 C16.9224586,32.2800319 16.9622372,32.3198105 16.9622372,32.399369 C16.9821268,32.4391482 17.0069884,32.52865 17.0368228,32.6678772 C17.0666572,32.8071045 17.0815742,32.906551 17.0815742,32.9662198 L17.0815742,33.4137336 C17.0815742,33.493292 17.1213528,33.5330706 17.2009112,33.5330706 L17.3500825,33.5330706 C17.3699721,33.513181 17.3898614,33.4734024 17.409751,33.4137336 C17.4296406,33.3540648 17.4395852,33.3142862 17.4395852,33.2943966 C17.4594748,33.2546174 17.4694195,33.1601432 17.4694195,33.0109712 C17.4694195,32.8617991 17.4594748,32.767325 17.4395852,32.7275457 C17.4793644,32.7275457 17.5290877,32.7076564 17.5887565,32.6678772 C17.6484253,32.628098 17.6882039,32.6082087 17.7080935,32.6082087 C17.7677623,32.5485399 17.8174856,32.518706 17.8572648,32.518706 L17.8572648,32.399369 L17.7080935,32.3247833 C17.6484247,32.2949489 17.5987015,32.2800319 17.5589223,32.2800319 C17.5589223,32.2601423 17.5440053,32.240253 17.5141709,32.2203634 C17.4843365,32.2004738 17.4594748,32.1805845 17.4395852,32.1606949 C17.4196956,32.1209157 17.3550554,32.0463308 17.2456626,31.936938 C17.1362698,31.8275452 17.0815742,31.762905 17.0815742,31.7430154 L16.9622372,31.6236783 L16.9622372,31.2656673 C16.9622372,31.2457777 16.9771542,31.2308607 17.0069886,31.2209159 C17.036823,31.2109711 17.0616846,31.1960541 17.0815742,31.1761645 C17.1014638,31.1363853 17.1760487,31.0717451 17.3053311,30.9822419 C17.4346135,30.8927387 17.5191431,30.8280984 17.5589223,30.7883192 C17.5987015,30.7883192 17.6335077,30.7584853 17.6633421,30.6988165 C17.6931766,30.6391477 17.7080935,30.5993691 17.7080935,30.5794794 C17.7279831,30.5794794 17.7478724,30.5695348 17.767762,30.5496452 C17.8075412,30.509866 17.8373752,30.4899767 17.8572648,30.4899767 C17.8572648,30.4501975 17.8771541,30.3855572 17.9169333,30.296054 C17.9567125,30.2065508 17.9766018,30.1518552 17.9766018,30.1319656 C17.9766018,30.0921864 17.9815741,30.0424632 17.9915189,29.9827944 C18.0014637,29.9231256 18.0064361,29.883347 18.0064361,29.8634573 C18.0859945,29.8634573 18.1456624,29.843568 18.1854416,29.8037888 C18.2451104,29.7640096 18.3296399,29.7192587 18.4390328,29.6695347 C18.5484256,29.6198107 18.6031212,29.5850044 18.6031212,29.5651148 L18.6031212,28.6700872 C18.6031212,28.5905288 18.6329551,28.5507502 18.6926239,28.5507502 C18.7324031,28.5308606 18.8020157,28.5308606 18.9014637,28.5507502 C19.0009117,28.5706398 19.0605796,28.5805844 19.0804692,28.5805844 L19.0804692,28.0435678 C19.1799172,28.0435678 19.2594744,28.0137339 19.3191433,27.9540651 C19.3788121,27.9540651 19.4335076,27.9142865 19.4832316,27.8347281 C19.5329557,27.7551697 19.5677619,27.6955017 19.5876515,27.6557225 L19.527983,27.4468828 C19.5080934,27.4269932 19.4981488,27.3872146 19.4981488,27.3275457 C19.5180384,27.3275457 19.572734,27.3126288 19.6622372,27.2827944 C19.7517404,27.25296 19.806436,27.2280983 19.8263256,27.2082087 C19.8263256,27.1883191 19.8462149,27.1336235 19.8859941,27.0441203 C19.9257733,26.9546171 19.9655519,26.8899769 20.0053311,26.8501977 L20.0053311,26.7308607 C20.0053311,26.7109711 19.9904141,26.6612478 19.9605797,26.5816894 C19.9307453,26.502131 19.9058837,26.4176014 19.8859941,26.3280982 C19.8661045,26.238595 19.8511875,26.1540655 19.8412427,26.0745071 C19.8312979,25.9949487 19.8263256,25.9452254 19.8263256,25.9253358 C19.8263256,25.8855566 19.8661042,25.815944 19.9456626,25.716496 C20.025221,25.617048 20.0749443,25.5474354 20.0948339,25.5076562 L20.3633421,25.5076562 C20.3633421,25.467877 20.3732868,25.4280984 20.3931764,25.3883192 C20.413066,25.34854 20.4429,25.3087614 20.4826792,25.2689822 C20.5224584,25.2490926 20.5870986,25.2142863 20.6766018,25.1645623 C20.766105,25.1148383 20.8208006,25.0700874 20.8406902,25.0303082 C20.8804694,25.0303082 20.9252204,25.0054465 20.9749444,24.9557225 L21.1091985,24.8214684 C21.1091985,24.8811372 21.1440048,24.9656667 21.2136184,25.0750596 C21.283232,25.1844524 21.3379276,25.2490926 21.3777068,25.2689822 C21.417486,25.3087614 21.4970432,25.3286507 21.6163808,25.3286507 C21.7357184,25.3286507 21.8152756,25.3087614 21.8550549,25.2689822 L23.4959388,25.9253358 C23.4959388,25.965115 23.5208005,26.0098659 23.5705245,26.0595899 C23.6202485,26.109314 23.6550548,26.1540649 23.6749444,26.1938441 C23.6749444,26.2137337 23.684889,26.233623 23.7047786,26.2535126 C23.7246682,26.2734022 23.7445575,26.2833469 23.7644471,26.2833469 C23.8042263,26.3032365 23.8937282,26.3082088 24.0329554,26.298264 C24.1721826,26.2883192 24.2517398,26.2833469 24.2716294,26.2833469 C24.2716294,26.3032365 24.2815741,26.3231258 24.3014637,26.3430154 C24.3412429,26.3827946 24.3710769,26.4026839 24.3909665,26.4026839 C24.4108561,26.4026839 24.4208007,26.4126285 24.4208007,26.4325181 C24.3810215,26.4325181 24.3312982,26.4374904 24.2716294,26.4474353 C24.2119606,26.4573801 24.172182,26.4822417 24.1522924,26.5220209 C24.1125132,26.5220209 24.0777069,26.5518548 24.0478725,26.6115236 C24.0180381,26.6711925 24.0031212,26.7109711 24.0031212,26.7308607 C23.9832316,26.7706399 23.9384806,26.8352801 23.868867,26.9247833 C23.7992534,27.0142865 23.7644471,27.0689821 23.7644471,27.0888717 C23.7644471,27.1087613 23.7594748,27.1634569 23.74953,27.2529601 C23.7395852,27.3424633 23.7346129,27.4071036 23.7346129,27.4468828 C23.7346129,27.5065516 23.7395852,27.5910811 23.74953,27.7004739 C23.7594748,27.8098667 23.7644471,27.874507 23.7644471,27.8943966 C23.7644471,27.9341758 23.7793641,28.0037883 23.8091985,28.1032364 C23.8390329,28.2026844 23.8638945,28.2722969 23.8837841,28.3120761 C23.9036737,28.3319657 23.923563,28.3568274 23.9434526,28.3866618 C23.9633422,28.4164962 23.9832316,28.4413578 24.0031212,28.4612474 L24.2716294,28.4612474 C24.2716294,28.5010266 24.3014634,28.5955008 24.3611322,28.7446728 L24.5103035,29.117601 C24.5301931,29.1374906 24.5500824,29.1772692 24.569972,29.236938 C24.5898616,29.2966068 24.6097509,29.3363854 24.6296405,29.356275 C24.6296405,29.3761646 24.6545021,29.4308602 24.7042261,29.5203634 C24.7539501,29.6098666 24.7887564,29.6745069 24.808646,29.7142861 L24.8683145,29.8037888 C24.8683145,29.843568 24.8931762,29.9380422 24.9429002,30.0872143 C24.9926242,30.2363863 25.0274304,30.3606944 25.04732,30.4601424 L25.04732,30.6689822 C25.04732,30.7087614 25.062237,30.8032356 25.0920714,30.9524076 C25.1219058,31.1015796 25.1368228,31.1960538 25.1368228,31.235833 L25.1666571,31.2656673 C25.1865467,31.2855569 25.1964913,31.3004739 25.1964913,31.3104187 C25.1964913,31.3203635 25.206436,31.3352805 25.2263256,31.3551701 C25.2462152,31.3949493 25.2760491,31.4347279 25.3158283,31.4745071 C25.3357179,31.5142863 25.3556072,31.6236774 25.3754968,31.8026839 C25.3953864,31.9816903 25.4152757,32.0910815 25.4351654,32.1308607 C25.4351654,32.1706399 25.474944,32.2352801 25.5545024,32.3247833 C25.6340608,32.4142865 25.6738394,32.4689821 25.6738394,32.4888717 L25.6738394,33.1750596 C25.6738394,33.1949492 25.6937287,33.2347278 25.7335079,33.2943966 C25.7732871,33.3540654 25.8031211,33.3838993 25.8230107,33.3838993 C25.8429003,33.4236785 25.9274298,33.5032358 26.0766018,33.6225734 C26.2257738,33.741911 26.3103034,33.8214682 26.330193,33.8612474 L26.330193,33.9507502 C26.3103034,33.9706398 26.2605801,33.9905291 26.1810217,34.0104187 C26.1014633,34.0303083 26.05174,34.0501976 26.0318504,34.0700872 L26.0318504,34.278927 C26.05174,34.2988166 26.0766017,34.3385952 26.1064361,34.398264 C26.1362705,34.4579328 26.1710768,34.4977114 26.210856,34.517601 L26.330193,34.636938 C26.3500826,34.6767172 26.3848889,34.7562744 26.4346129,34.875612 C26.4843369,34.9949497 26.5191432,35.0745069 26.5390328,35.1142861 C26.5589224,35.1142861 26.5788117,35.1242307 26.5987013,35.1441203 C26.6384805,35.1838995 26.6683144,35.2037888 26.688204,35.2037888 C26.7279832,35.243568 26.7677618,35.273402 26.807541,35.2932916 C26.8274306,35.3330708 26.8473199,35.4524066 26.8672096,35.6513027 C26.8870992,35.8501987 26.9169331,35.9695345 26.9567123,36.0093137 C26.9567123,36.0292033 27.0263249,36.0640096 27.1655521,36.1137336 C27.3047793,36.1634576 27.3942812,36.1982639 27.4340604,36.2181535 C27.45395,36.2380431 27.4638946,36.2877663 27.4638946,36.3673248 C27.4638946,36.407104 27.45395,36.4568272 27.4340604,36.516496 C27.4340604,36.5960544 27.4837836,36.635833 27.5832316,36.635833 L27.6727344,36.635833 L27.74732,36.7104187 C27.7771545,36.7402531 27.7920714,36.7651147 27.7920714,36.7850043 L27.6876515,36.8446728 C27.6180379,36.884452 27.543453,36.9192583 27.4638946,36.9490927 C27.3843362,36.9789271 27.3097513,37.0137334 27.2401377,37.0535126 L27.1357178,37.1131811 C27.1357178,37.1330707 27.1307455,37.15296 27.1208007,37.1728496 C27.1108559,37.1927392 27.1058836,37.2126285 27.1058836,37.2325181 L27.1058836,37.2921866 C27.1058836,37.3120762 27.1158282,37.3319655 27.1357178,37.3518551 L27.2550549,37.4711922 C27.2948341,37.4910818 27.3445573,37.540805 27.4042261,37.6203634 C27.4638949,37.6999218 27.5136182,37.7595897 27.5533974,37.799369 C27.573287,37.7595897 27.6080933,37.6999218 27.6578173,37.6203634 C27.7075413,37.540805 27.7522922,37.4910818 27.7920714,37.4711922 C27.7920714,37.4513026 27.8119607,37.4264409 27.8517399,37.3966065 C27.8915191,37.3667721 27.9213531,37.3518551 27.9412427,37.3518551 C27.9810219,37.3120759 28.0208005,37.2921866 28.0605797,37.2921866 C28.0605797,37.3319658 28.0556074,37.4015784 28.0456626,37.5010264 C28.0357178,37.6004744 28.0307455,37.670087 28.0307455,37.7098662 C28.0108559,37.7297558 27.9909666,37.7595897 27.971077,37.799369 C27.9511874,37.8192586 27.9412427,37.8490925 27.9412427,37.8888717 L27.9412427,38.038043 C27.9412427,38.0778222 27.9511874,38.1176008 27.971077,38.15738 C27.9909666,38.1971592 28.0108559,38.2269932 28.0307455,38.2468828 L28.0307455,38.6943966 C28.0307455,38.7341758 28.0904134,38.8236776 28.209751,38.9629049 C28.3290886,39.1021321 28.3688672,39.2115233 28.329088,39.2910817 C28.3091984,39.2910817 28.33406,39.3159433 28.4036736,39.3656673 C28.4732872,39.4153913 28.5080935,39.4501976 28.5080935,39.4700872 L28.5080935,39.678927 C28.5279831,39.7187062 28.5677617,39.8330697 28.6274305,40.0220209 C28.6870994,40.2109721 28.7368226,40.3551696 28.7766018,40.4546176 C28.7766018,40.4943968 28.7169339,40.5938433 28.5975963,40.7529601 C28.4782587,40.9120769 28.4185908,41.0115234 28.4185908,41.0513027 C28.45837,41.0513027 28.5230102,41.0363857 28.6125134,41.0065513 C28.7020166,40.9767169 28.7666569,40.9617999 28.8064361,40.9617999 C28.8263257,40.9816895 28.8561596,41.0214681 28.8959388,41.0811369 C28.935718,41.1408057 28.965552,41.1805843 28.9854416,41.2004739 C28.9854416,41.2800323 29.0252202,41.3198109 29.1047786,41.3198109 C29.1047786,41.3595901 29.1346126,41.3894241 29.1942814,41.4093137 L29.3136184,41.4689822 C29.3136184,41.4888718 29.323563,41.4988165 29.3434526,41.4988165 L29.4031212,41.4988165 C29.4230108,41.5187061 29.4429001,41.5286507 29.4627897,41.5286507 C29.4627897,41.5684299 29.4876513,41.6728488 29.5373753,41.8419104 C29.5870993,42.010972 29.6318502,42.1253355 29.6716294,42.1850043 C29.691519,42.2446731 29.721353,42.3093134 29.7611322,42.378927 C29.8009114,42.4485406 29.8208007,42.4932915 29.8208007,42.5131811 C29.8208007,42.5728499 29.8357177,42.6623518 29.8655521,42.7816894 C29.8953865,42.901027 29.9252205,43.0303075 29.9550549,43.1695347 C29.9848893,43.3087619 30.0097509,43.4330701 30.0296405,43.5424629 C30.0495301,43.6518557 30.0594747,43.7264406 30.0594747,43.7662198 C30.0793643,43.805999 30.0843367,43.8855562 30.0743919,44.0048938 C30.0644471,44.1242314 30.0594747,44.193844 30.0594747,44.2137336 C30.0594747,44.2336232 30.0743917,44.2734018 30.1042261,44.3330706 C30.1340605,44.3927394 30.1589222,44.4225734 30.1788118,44.4225734 L30.1788118,44.6612474 C30.1589222,44.681137 30.034614,44.7408049 29.8058836,44.8402529 C29.5771532,44.9397009 29.452845,45.0093135 29.4329554,45.0490927 C29.4329554,45.0689823 29.4180384,45.1087609 29.388204,45.1684297 C29.3583696,45.2280985 29.333508,45.2579325 29.3136184,45.2579325 C29.2738392,45.2778221 29.2042266,45.3026837 29.1047786,45.3325181 C29.0053306,45.3623525 28.9456627,45.3772695 28.9257731,45.3772695 L28.8064361,45.436938 C28.7069881,45.4966068 28.6572648,45.5065515 28.6572648,45.4667723 C28.6174856,45.4468827 28.5876516,45.4269934 28.567762,45.4071038 C28.5279828,45.3872142 28.4882042,45.3374909 28.448425,45.2579325 C28.4285354,45.2380429 28.3987015,45.2032366 28.3589223,45.1535126 C28.3191431,45.1037886 28.2893091,45.0689823 28.2694195,45.0490927 L28.2694195,44.8700872 Z M13.0241156,44.3629049 L13.1732869,44.3629049 L13.1732869,44.2435678 L13.0241156,44.2435678 L13.0241156,44.3629049 Z M13.0241156,43.7065513 L13.1732869,43.676717 C13.2528453,43.676717 13.2926239,43.6369384 13.2926239,43.55738 L13.3224582,43.4678772 C13.3224582,43.4479876 13.3174858,43.4330707 13.307541,43.4231259 C13.2975962,43.4131811 13.2926239,43.3982641 13.2926239,43.3783745 L13.2926239,43.3485402 C13.2926239,43.308761 13.2528453,43.2640101 13.1732869,43.2142861 C13.0937285,43.1645621 13.0440052,43.1297558 13.0241156,43.1098662 L13.0241156,43.7065513 Z M13.5611322,42.7816894 C13.5014634,42.7816894 13.4716294,42.8115233 13.4716294,42.8711922 C13.4716294,42.930861 13.5014634,42.9606949 13.5611322,42.9606949 C13.620801,42.9606949 13.650635,42.930861 13.650635,42.8711922 C13.650635,42.8115233 13.620801,42.7816894 13.5611322,42.7816894 Z M15.1721819,41.4689822 C15.1721819,41.4490926 15.1821266,41.4192587 15.2020162,41.3794794 C15.2219058,41.3397002 15.2318504,41.3098663 15.2318504,41.2899767 L15.2616847,41.2601424 C15.2616847,41.2402528 15.266657,41.2303082 15.2766018,41.2303082 C15.2865466,41.2303082 15.2915189,41.2203635 15.2915189,41.2004739 C15.3312981,41.1606947 15.3959384,41.1159438 15.4854416,41.0662198 C15.5749448,41.0164958 15.639585,40.9816895 15.6793642,40.9617999 C15.6793642,40.9419103 15.7340598,40.9170487 15.8434526,40.8872143 C15.9528455,40.8573799 16.0274303,40.8424629 16.0672096,40.8424629 C16.0870992,40.8424629 16.1119608,40.8374905 16.1417952,40.8275457 C16.1716296,40.8176009 16.1964912,40.8126286 16.2163808,40.8126286 C16.2163808,40.8722974 16.1964915,40.9220207 16.1567123,40.9617999 C16.1567123,41.0214687 16.1268784,41.0513027 16.0672096,41.0513027 C16.0473199,41.0711923 15.9777074,41.0960539 15.8583698,41.1258883 C15.7390322,41.1557227 15.6793642,41.1805843 15.6793642,41.2004739 C15.5799162,41.2004739 15.500359,41.2303079 15.4406902,41.2899767 C15.4208006,41.3098663 15.395939,41.3297556 15.3661046,41.3496452 C15.3362702,41.3695348 15.3114085,41.3894241 15.2915189,41.4093137 L15.2915189,41.558485 C15.3114085,41.5783746 15.3362702,41.6280978 15.3661046,41.7076562 C15.395939,41.7872147 15.4208006,41.8369379 15.4406902,41.8568275 L15.2915189,41.8568275 C15.2915189,41.8369379 15.2815743,41.8021316 15.2616847,41.7524076 C15.2417951,41.7026836 15.2318504,41.6579327 15.2318504,41.6181535 C15.2119608,41.5982639 15.2020162,41.5783746 15.2020162,41.558485 C15.1821266,41.5385954 15.1721819,41.5087614 15.1721819,41.4689822 Z M15.2915189,39.3805844 C15.390967,39.3408052 15.4406902,39.2513033 15.4406902,39.1120761 C15.4208006,39.1120761 15.4009113,39.1021315 15.3810217,39.0822419 C15.3611321,39.0822419 15.3462151,39.0772696 15.3362703,39.0673248 C15.3263255,39.05738 15.3114085,39.0524076 15.2915189,39.0524076 L15.2915189,39.3805844 Z M14.5456626,39.2910817 C14.5655522,39.2711921 14.5854415,39.2463304 14.6053311,39.216496 C14.6252207,39.1866616 14.6550547,39.1518553 14.6948339,39.1120761 L14.6948339,39.0524076 L14.5456626,39.0524076 L14.5456626,39.2910817 Z M16.4550549,38.6943966 C16.395386,38.6943966 16.3655521,38.7341752 16.3655521,38.8137336 C16.3655521,38.893292 16.395386,38.9330706 16.4550549,38.9330706 C16.4948341,38.9330706 16.5147234,38.893292 16.5147234,38.8137336 C16.5147234,38.7341752 16.4948341,38.6943966 16.4550549,38.6943966 Z M14.6948339,38.4557225 C14.6948339,38.5153913 14.7246678,38.5452253 14.7843366,38.5452253 C14.8042262,38.5651149 14.8440048,38.5750596 14.9036736,38.5750596 L14.9633421,38.5750596 L14.9633421,38.4557225 L14.6948339,38.4557225 Z M18.9611322,38.4557225 L19.0804692,38.4557225 L19.0804692,38.3363855 L18.9611322,38.3363855 L18.9611322,38.4557225 Z M14.6948339,37.4711922 C14.6948339,37.4513026 14.7047785,37.4314133 14.7246681,37.4115236 L14.7843366,37.3518551 L14.8141709,37.2921866 L14.7843366,37.2026839 C14.764447,37.2026839 14.7445577,37.1927392 14.7246681,37.1728496 C14.7047785,37.15296 14.6948339,37.1330707 14.6948339,37.1131811 L14.6948339,37.4711922 Z M14.5456626,36.9043413 C14.4859938,36.9043413 14.4561598,36.9391476 14.4561598,37.0087612 C14.4561598,37.0783748 14.4859938,37.1131811 14.5456626,37.1131811 C14.625221,37.1131811 14.6649996,37.0783748 14.6649996,37.0087612 C14.6649996,36.9391476 14.625221,36.9043413 14.5456626,36.9043413 Z M23.167762,37.0236783 C23.167762,36.9640095 23.1379281,36.9341756 23.0782593,36.9341756 C23.0185905,36.9341756 22.9887565,36.9640095 22.9887565,37.0236783 C23.0484253,37.0833472 23.1080932,37.0833472 23.167762,37.0236783 Z M25.0174858,37.0236783 C25.0373754,36.9640095 25.0224584,36.9341756 24.9727344,36.9341756 C24.9230104,36.9341756 24.8981488,36.9640095 24.8981488,37.0236783 C24.937928,37.0634575 24.9777066,37.0634575 25.0174858,37.0236783 Z M25.0174858,36.635833 C24.957817,36.635833 24.927983,36.680584 24.927983,36.7700872 C24.927983,36.8595904 24.957817,36.9043413 25.0174858,36.9043413 C25.0771546,36.9043413 25.1069886,36.8595904 25.1069886,36.7700872 C25.1069886,36.680584 25.0771546,36.635833 25.0174858,36.635833 Z M21.4672096,36.3076562 C21.4274303,36.3076562 21.407541,36.3424625 21.407541,36.4120761 C21.407541,36.4816897 21.4274303,36.516496 21.4672096,36.516496 C21.5666576,36.516496 21.6163808,36.4816897 21.6163808,36.4120761 C21.6163808,36.3424625 21.5666576,36.3076562 21.4672096,36.3076562 Z M21.6462151,36.2181535 C21.6661047,36.2380431 21.6959386,36.2579324 21.7357178,36.277822 C21.775497,36.2977116 21.8152756,36.3076562 21.8550549,36.3076562 C21.8749445,36.3275458 21.9097507,36.3424628 21.9594747,36.3524076 C22.0091987,36.3623524 22.0539497,36.3772694 22.0937289,36.397159 C22.1533977,36.4170486 22.2130656,36.4269933 22.2727344,36.4269933 L23.167762,36.4269933 C23.1876516,36.4269933 23.2970428,36.407104 23.4959388,36.3673248 C23.6948349,36.3275455 23.8241153,36.3076562 23.8837841,36.3076562 C23.9235633,36.3076562 24.0478715,36.3275455 24.2567123,36.3673248 C24.4655531,36.407104 24.5799166,36.4269933 24.5998062,36.4269933 L24.8683145,36.4269933 C24.8683145,36.3872141 24.8633422,36.2827952 24.8533974,36.1137336 C24.8434526,35.944672 24.818591,35.8402531 24.7788118,35.8004739 C24.7788118,35.7408051 24.7241162,35.6264416 24.6147234,35.45738 C24.5053306,35.2883184 24.420801,35.1739549 24.3611322,35.1142861 C24.3611322,35.0943965 24.3312982,35.0546179 24.2716294,34.9949491 C24.2119606,34.9352803 24.1622374,34.8955016 24.1224582,34.875612 C24.1025686,34.8358328 24.0677623,34.761248 24.0180383,34.6518551 C23.9683143,34.5424623 23.9235633,34.4678774 23.8837841,34.4280982 C23.8440049,34.4082086 23.814171,34.353513 23.7942814,34.2640098 C23.7743918,34.1745066 23.7644471,34.119811 23.7644471,34.0999214 C23.7445575,34.0800318 23.6948343,34.0253363 23.6152758,33.935833 C23.5357174,33.8463298 23.4959388,33.7916342 23.4959388,33.7717446 C23.4760492,33.751855 23.4412429,33.6822425 23.3915189,33.5629049 C23.3417949,33.4435673 23.282127,33.3142868 23.2125134,33.1750596 C23.1428998,33.0358323 23.0732872,32.8916349 23.0036736,32.7424629 C22.93406,32.5932909 22.8793644,32.4789274 22.8395852,32.399369 C22.8395852,32.3595897 22.7848897,32.2253369 22.6754968,31.9966065 C22.566104,31.7678761 22.5014638,31.6037893 22.4815742,31.5043413 C22.4616846,31.4645621 22.4417953,31.4148389 22.4219057,31.3551701 L22.3622372,31.1761645 L22.3025687,31.0568275 C22.2826791,31.0170483 22.2727344,30.9772697 22.2727344,30.9374905 C22.2727344,30.8977113 22.2528451,30.7982648 22.2130659,30.639148 C22.1732867,30.4800311 22.1533974,30.3905293 22.1533974,30.3706397 C22.1335078,30.3507501 22.1036738,30.3010268 22.0638946,30.2214684 C22.044005,30.1816892 22.0141711,30.1518552 21.9743919,30.1319656 L21.9743919,29.9231259 C21.9545023,29.8833467 21.919696,29.843568 21.869972,29.8037888 C21.820248,29.7640096 21.775497,29.7341757 21.7357178,29.7142861 L21.6760493,29.6844518 C21.6561597,29.6844518 21.6462151,29.6943965 21.6462151,29.7142861 C21.6263255,29.7540653 21.5915192,29.8385948 21.5417952,29.9678772 C21.4920712,30.0971597 21.4672096,30.1816892 21.4672096,30.2214684 L21.4672096,30.3706397 C21.4672096,30.3905293 21.4970435,30.4253356 21.5567123,30.4750596 C21.6163811,30.5247836 21.6462151,30.5595898 21.6462151,30.5794794 C21.6462151,30.6192587 21.6412427,30.6838989 21.6312979,30.7734021 C21.6213531,30.8629053 21.6263255,30.9176009 21.6462151,30.9374905 C21.6462151,30.9772697 21.6561597,31.0170483 21.6760493,31.0568275 L21.7357178,31.1761645 L21.7357178,31.9816894 C21.7158282,31.9617998 21.6611326,31.9369382 21.5716294,31.9071038 C21.4821262,31.8772694 21.417486,31.8524077 21.3777068,31.8325181 L21.1987013,31.8325181 L21.1987013,31.9518551 C21.1987013,31.9916343 21.2086459,32.0214683 21.2285355,32.0413579 C21.2683147,32.0811371 21.3130657,32.140805 21.3627897,32.2203634 C21.4125137,32.2999218 21.4473199,32.3595897 21.4672096,32.399369 L21.3777068,32.399369 C21.3379276,32.3794793 21.2484257,32.3397007 21.1091985,32.2800319 C20.9699713,32.2203631 20.8804694,32.1805845 20.8406902,32.1606949 L20.7213532,32.1606949 L20.6616847,32.2203634 C20.6417951,32.240253 20.6318504,32.2601423 20.6318504,32.2800319 L20.4826792,32.2800319 C20.4429,32.2601423 20.413066,32.2203637 20.3931764,32.1606949 C20.3732868,32.1010261 20.3633421,32.0612475 20.3633421,32.0413579 L19.9754968,32.0413579 L20.0948339,32.399369 C20.1147235,32.4192586 20.2042253,32.4540648 20.3633421,32.5037888 C20.522459,32.5535128 20.6119608,32.5883191 20.6318504,32.6082087 L20.6318504,32.9662198 C20.6318504,33.005999 20.6567121,33.0656669 20.7064361,33.1452253 C20.7561601,33.2247837 20.800911,33.274507 20.8406902,33.2943966 L20.7213532,33.4137336 C20.7213532,33.4535128 20.6915192,33.5678763 20.6318504,33.7568275 C20.5721816,33.9457787 20.5224584,34.0601422 20.4826792,34.0999214 L20.3633421,34.2192585 C20.3434525,34.2590377 20.3235632,34.2888716 20.3036736,34.3087612 C20.283784,34.3485404 20.2638947,34.3734021 20.2440051,34.3833469 C20.2241155,34.3932917 20.2141709,34.4082086 20.2141709,34.4280982 C20.1942813,34.4678774 20.1694196,34.5275453 20.1395852,34.6071038 C20.1097508,34.6866622 20.0948339,34.7363854 20.0948339,34.756275 C20.0351651,34.756275 20.0053311,34.7164964 20.0053311,34.636938 C19.9854415,34.5971588 19.9804692,34.5076569 19.990414,34.3684297 C20.0003588,34.2292025 20.0053311,34.1397006 20.0053311,34.0999214 C20.0053311,34.0601422 19.9804695,34.0153913 19.9307455,33.9656673 C19.8810215,33.9159433 19.8462152,33.8910817 19.8263256,33.8910817 L19.7219057,33.9955015 C19.6721817,34.0452256 19.6274307,34.0800318 19.5876515,34.0999214 C19.5677619,34.119811 19.552845,34.1546173 19.5429002,34.2043413 C19.5329554,34.2540653 19.527983,34.2888716 19.527983,34.3087612 C19.5080934,34.3485404 19.4981488,34.3982637 19.4981488,34.4579325 L19.4981488,34.7264408 C19.4981488,34.76622 19.5031211,34.8358325 19.5130659,34.9352806 C19.5230107,35.0347286 19.527983,35.0943965 19.527983,35.1142861 C19.527983,35.1540653 19.5329554,35.2435672 19.5429002,35.3827944 C19.552845,35.5220216 19.5677619,35.6115234 19.5876515,35.6513027 L19.8263256,35.2037888 L19.9456626,35.2037888 C19.9456626,35.2236784 19.9556072,35.2584847 19.9754968,35.3082087 C19.9953864,35.3579327 20.0053311,35.4026837 20.0053311,35.4424629 C19.9854415,35.4822421 19.9506352,35.556827 19.9009112,35.6662198 C19.8511872,35.7756126 19.8263256,35.8402528 19.8263256,35.8601424 L19.8263256,36.0093137 C19.8859944,36.0689825 19.9357176,36.1087611 19.9754968,36.1286507 C20.015276,36.1684299 20.0550547,36.1982639 20.0948339,36.2181535 L21.2285355,36.2181535 C21.2285355,36.2380431 21.2484248,36.2579324 21.288204,36.277822 C21.3279832,36.2977116 21.3578172,36.3076562 21.3777068,36.3076562 C21.417486,36.3076562 21.4572646,36.2977116 21.4970438,36.277822 C21.5766022,36.2380428 21.6263255,36.2181535 21.6462151,36.2181535 Z M19.1401377,35.7109712 C19.1003585,35.7507504 19.0804692,35.7805843 19.0804692,35.8004739 L19.0804692,36.3076562 C19.1600276,36.3076562 19.1998062,36.2778223 19.1998062,36.2181535 C19.1998062,36.1783743 19.2196955,36.1037894 19.2594747,35.9943966 C19.2992539,35.8850038 19.3191433,35.8203635 19.3191433,35.8004739 C19.3191433,35.7805843 19.2992539,35.7507504 19.2594747,35.7109712 L19.1998062,35.6513027 L19.1401377,35.7109712 Z M17.7080935,35.6513027 C17.7080935,35.6711923 17.7230105,35.7258878 17.7528449,35.8153911 C17.7826793,35.9048943 17.8174856,35.9695345 17.8572648,36.0093137 L17.9169333,36.0689822 C17.9368229,36.0888718 17.9567122,36.0988165 17.9766018,36.0988165 L18.4539499,36.0988165 C18.4738395,36.0789269 18.4937288,36.0490929 18.5136184,36.0093137 C18.533508,35.9695345 18.5533973,35.9446729 18.5732869,35.9347281 C18.5931765,35.9247833 18.6031212,35.8999216 18.6031212,35.8601424 C18.6031212,35.8402528 18.6180381,35.750751 18.6478725,35.5916341 C18.6777069,35.4325173 18.6926239,35.3330708 18.6926239,35.2932916 L18.8417952,35.1142861 L18.8417952,34.756275 C18.8219056,34.7363854 18.797044,34.6866622 18.7672096,34.6071038 C18.7373751,34.5275453 18.7125135,34.4678774 18.6926239,34.4280982 C18.6926239,34.3485398 18.66279,34.3087612 18.6031212,34.3087612 C18.6031212,34.3286508 18.5882042,34.3684294 18.5583698,34.4280982 C18.5285354,34.487767 18.4937291,34.517601 18.4539499,34.517601 C18.4141707,34.5772698 18.2998072,34.6966056 18.110856,34.875612 C17.9219047,35.0546185 17.7876519,35.1640096 17.7080935,35.2037888 L17.7080935,35.6513027 Z M15.8583698,35.6513027 C15.8583698,35.6711923 15.8285358,35.6960539 15.768867,35.7258883 C15.7091982,35.7557227 15.6793642,35.7805843 15.6793642,35.8004739 C15.6594746,35.8004739 15.64953,35.8104186 15.64953,35.8303082 C15.64953,35.8501978 15.6395853,35.8601424 15.6196957,35.8601424 L15.8583698,35.8601424 L15.8583698,35.6513027 Z M17.8572648,34.517601 L18.0064361,34.517601 C17.9865465,34.517601 17.9766018,34.5076563 17.9766018,34.4877667 L17.9766018,34.4280982 L17.8572648,34.3087612 L17.8572648,34.517601 Z M20.4826792,31.2656673 L20.6318504,31.1761645 L20.4826792,31.1761645 L20.4826792,31.2656673 Z M18.9611322,31.0269933 C18.9014634,31.0269933 18.8716294,31.0667719 18.8716294,31.1463303 C18.8716294,31.2258887 18.9014634,31.2656673 18.9611322,31.2656673 C19.020801,31.2656673 19.050635,31.2258887 19.050635,31.1463303 C19.050635,31.0667719 19.020801,31.0269933 18.9611322,31.0269933 Z M17.9766018,30.7883192 C17.916933,30.7883192 17.8870991,30.8280978 17.8870991,30.9076562 C17.8870991,30.9872147 17.916933,31.0269933 17.9766018,31.0269933 C18.016381,31.0269933 18.0362703,30.9872147 18.0362703,30.9076562 C18.0362703,30.8280978 18.016381,30.7883192 17.9766018,30.7883192 Z M20.0053311,27.5363855 L20.0053311,27.4468828 L19.8263256,27.4468828 L20.0053311,27.5363855 Z" id="A" fill="#FF6967" transform="translate(20.974944, 35.156054) rotate(11.000000) translate(-20.974944, -35.156054) "></path>
                <g id="+" transform="translate(34.202068, 23.410109) rotate(13.000000) translate(-34.202068, -23.410109) translate(25.202068, 2.410109)" fill="#FF6967">
                    <path d="M6.57970183,29.8081952 C6.57970183,29.668968 6.60953579,29.5695215 6.6692046,29.5098527 C6.7288734,29.4501839 6.75870736,29.3706266 6.75870736,29.2711786 C6.75870736,29.151841 6.73881805,29.0374775 6.69903885,28.9280847 C6.65925964,28.8186919 6.63937034,28.714273 6.63937034,28.614825 L6.63937034,28.376151 C6.63937034,28.3562614 6.65925964,28.3115105 6.69903885,28.2418969 C6.73881805,28.1722832 6.75870736,28.1275323 6.75870736,28.1076427 C6.73881776,28.0678635 6.69903915,28.0131679 6.63937034,27.9435543 C6.57970153,27.8739407 6.52997827,27.8391344 6.49019907,27.8391344 C6.49019907,27.759576 6.48522674,27.6203509 6.47528194,27.4214549 C6.46533714,27.2225588 6.46036482,27.0932784 6.46036482,27.0336096 L6.46036482,26.3474217 C6.46036482,26.1087465 6.50014342,25.8800195 6.57970183,25.6612339 C6.61948104,25.5220067 6.67914895,25.4026708 6.75870736,25.3032228 C6.83826577,25.2037748 6.87804437,25.0744943 6.87804437,24.9153775 C6.87804437,24.7960399 6.79848716,24.736372 6.63937034,24.736372 L6.52003332,24.7960405 C6.50014372,24.8159301 6.47030977,24.8258748 6.43053056,24.8258748 L6.37086205,24.8258748 C6.13218683,24.865654 5.98798937,24.9153772 5.93826537,24.975046 C5.88854136,25.0347148 5.87362439,25.0943827 5.89351399,25.1540516 C5.91340359,25.2137204 5.92832057,25.2684159 5.93826537,25.3181399 C5.94821017,25.367864 5.89351458,25.3927256 5.77417697,25.3927256 C5.75428737,25.3927256 5.70456411,25.3330577 5.6250057,25.2137201 C5.54544729,25.0943824 5.48577938,25.0247699 5.44600018,25.0048803 L5.35649741,25.0048803 C5.33660781,25.1043283 5.31174618,25.2037748 5.28191178,25.3032228 C5.25207737,25.4026708 5.21727109,25.4921727 5.17749189,25.5717311 C5.17749189,25.5518415 5.15263026,25.5319522 5.10290625,25.5120626 C5.05318225,25.492173 5.00843131,25.492173 4.96865211,25.5120626 C4.94876251,25.5120626 4.90401157,25.5518412 4.83439797,25.6313996 C4.76478436,25.710958 4.72003342,25.7507366 4.70014382,25.7507366 L4.64047531,25.7805709 L4.5808068,25.7805709 C4.5609172,25.7805709 4.5410279,25.7706262 4.5211383,25.7507366 C4.48135909,25.7507366 4.39682955,25.696041 4.26754714,25.5866482 C4.13826472,25.4772554 4.07362448,25.4126152 4.07362448,25.3927256 L4.01395598,25.3628913 C3.91450797,25.3628913 3.85981238,25.4325039 3.84986758,25.5717311 C3.83992278,25.7109583 3.76533789,25.7805709 3.62611067,25.7805709 L3.53660791,25.7805709 C3.51671831,25.7805709 3.50677366,25.7706262 3.50677366,25.7507366 C3.48688405,25.7507366 3.45207777,25.7209027 3.40235377,25.6612339 C3.35262976,25.6015651 3.31782348,25.5717311 3.29793388,25.5717311 C3.25815467,25.5717311 3.20843141,25.6015651 3.14876261,25.6612339 C3.0890938,25.7209027 3.03937054,25.7507366 2.99959134,25.7507366 L2.96975708,25.7805709 C2.92997788,25.7805709 2.81064205,25.7258753 2.61174603,25.6164825 C2.41285001,25.5070897 2.27362488,25.4325048 2.19406647,25.3927256 L2.07472946,25.2733886 C2.15428787,25.2733886 2.19406647,25.2137207 2.19406647,25.094383 C2.19406647,24.994935 2.09461995,24.8755992 1.89572393,24.736372 L1.86588968,24.7065377 C1.78633127,24.7065377 1.72666336,24.7612333 1.68688415,24.8706261 C1.64710495,24.9800189 1.62721564,25.0546038 1.62721564,25.094383 C1.62721564,25.1142726 1.64213262,25.1341619 1.67196703,25.1540516 C1.70180143,25.1739412 1.71671841,25.1938305 1.71671841,25.2137201 L1.71671841,25.2733886 C1.71671841,25.2932782 1.70180143,25.3131675 1.67196703,25.3330571 C1.64213262,25.3529467 1.62721564,25.372836 1.62721564,25.3927256 L1.56754714,25.3927256 C1.48798873,25.3927256 1.40345919,25.3728363 1.31395598,25.3330571 C1.22445277,25.2932779 1.13992322,25.2534993 1.06036482,25.2137201 C1.10014402,25.114272 1.18467356,25.0695211 1.31395598,25.0794659 C1.44323839,25.0894107 1.50787863,25.0247705 1.50787863,24.8855433 C1.50787863,24.6667576 1.45815537,24.4976986 1.35870736,24.3783609 C1.25925935,24.2590233 1.20953609,24.1197982 1.20953609,23.9606814 C1.20953609,23.9209022 1.21450841,23.8463173 1.22445321,23.7369245 C1.23439801,23.6275317 1.2890936,23.5827807 1.38854161,23.6026703 L1.38854161,23.9905156 C1.40843121,23.970626 1.43329284,23.9407921 1.46312725,23.9010129 C1.49296165,23.8612337 1.50787863,23.8313997 1.50787863,23.8115101 L1.50787863,23.7220074 C1.50787863,23.6822281 1.5029063,23.6175879 1.4929615,23.5280847 C1.4830167,23.4385815 1.46809972,23.3739413 1.44821012,23.334162 C1.32887251,23.3739413 1.21450901,23.4336092 1.1051162,23.5131676 C0.995723385,23.592726 0.921138496,23.6921725 0.881359291,23.8115101 C0.821690485,23.7717309 0.766994899,23.6474228 0.717270893,23.4385819 C0.667546888,23.2297411 0.65262991,23.105433 0.672519512,23.0656538 C0.672519512,23.0258746 0.697381142,22.9860959 0.747105148,22.9463167 C0.796829153,22.9065375 0.841580087,22.8866482 0.881359291,22.8866482 L1.06036482,23.0656538 C1.12003362,23.0457642 1.14986758,23.0109579 1.14986758,22.9612339 L1.14986758,22.7971455 C1.14986758,22.7374767 1.15981223,22.6877534 1.17970183,22.6479742 C1.19959143,22.608195 1.269204,22.5883057 1.38854161,22.5883057 L1.44821012,22.5883057 L1.50787863,22.6778085 C1.54765783,22.7175877 1.58743644,22.737477 1.62721564,22.737477 C1.64710525,22.7573666 1.6769392,22.7673112 1.71671841,22.7673112 C1.77638721,22.7673112 1.83605513,22.7374773 1.89572393,22.6778085 L1.95539244,22.6778085 C2.03495085,22.6778085 2.14434202,22.7175871 2.28356924,22.7971455 C2.42279645,22.8767039 2.54213227,22.9363718 2.64158029,22.976151 C2.84047631,23.0159302 2.95981213,23.0507365 2.99959134,23.0805709 C3.03937054,23.1104053 3.05428752,23.1402392 3.04434272,23.1700737 C3.03439792,23.1999081 3.01948094,23.229742 2.99959134,23.2595764 C2.97970173,23.2894108 3.01948034,23.3142724 3.11892835,23.334162 C3.11892835,23.0954868 3.24820883,22.976151 3.50677366,22.976151 C3.58633206,22.976151 3.65594463,22.991068 3.71561343,23.0209024 C3.77528224,23.0507368 3.83495015,23.0656538 3.89461896,23.0656538 L3.95428747,23.0656538 C3.97417707,23.0457642 3.99406637,23.0308472 4.01395598,23.0209024 C4.03384558,23.0109576 4.05373488,22.9960406 4.07362448,22.976151 L4.07362448,22.8866482 C4.05373488,22.846869 4.03384558,22.7772565 4.01395598,22.6778085 C3.99406637,22.5783604 3.97417707,22.5186925 3.95428747,22.4988029 L3.95428747,22.4093002 C3.97417707,22.4093002 3.99406637,22.3943832 4.01395598,22.3645488 C4.03384558,22.3347144 4.05373488,22.3197974 4.07362448,22.3197974 C4.11340369,22.3794662 4.13826532,22.4689681 4.14821012,22.5883057 C4.15815492,22.7076433 4.21285051,22.7673112 4.31229852,22.7673112 C4.43163613,22.7673112 4.52611032,22.7225603 4.59572393,22.6330571 C4.66533754,22.5435539 4.77970104,22.4988029 4.93881785,22.4988029 C5.05815547,22.4988029 5.13771268,22.5286369 5.17749189,22.5883057 C5.21727109,22.6479745 5.28688366,22.6778085 5.38633167,22.6778085 C5.38633167,22.6181397 5.37638701,22.5584717 5.35649741,22.4988029 C5.33660781,22.4391341 5.37638642,22.4093002 5.47583443,22.4093002 L5.53550294,22.4093002 L5.63992283,22.5137201 C5.68964683,22.5634441 5.72445311,22.5883057 5.74434272,22.5883057 L5.80401122,22.5883057 C5.90345924,22.4888577 5.96312715,22.4043281 5.98301675,22.3347145 C6.00290635,22.2651009 6.012851,22.1805714 6.012851,22.0811234 C6.012851,22.001565 6.00290635,21.9369247 5.98301675,21.8872007 C5.96312715,21.8374767 5.90345924,21.7927258 5.80401122,21.7529466 C5.82390083,21.6932778 5.85870711,21.6634438 5.90843111,21.6634438 L6.07251951,21.6634438 C6.13218832,21.6634438 6.1868839,21.6584715 6.23660791,21.6485267 C6.28633192,21.6385819 6.31119355,21.6037756 6.31119355,21.5441068 C6.31119355,21.5043276 6.29130424,21.434715 6.25152504,21.335267 C6.21174583,21.235819 6.1669949,21.1314002 6.11727089,21.0220074 C6.06754689,20.9126145 6.0128513,20.8181403 5.9531825,20.7385819 C5.89351369,20.6590235 5.84379043,20.6192449 5.80401122,20.6192449 L5.80401122,19.694383 C5.92334884,19.7341622 5.9730721,19.8236641 5.9531825,19.9628913 C5.93329289,20.1021185 5.9730715,20.1916204 6.07251951,20.2313996 C6.21174673,20.2313996 6.28135929,20.1816764 6.28135929,20.0822283 C6.30124889,20.0225595 6.29130424,19.9181407 6.25152504,19.7689687 C6.21174583,19.6197967 6.15207792,19.5054332 6.07251951,19.4258748 L6.19185653,19.4258748 C6.27141494,19.4258748 6.34599983,19.4407917 6.41561343,19.4706261 C6.48522704,19.5004605 6.54986728,19.5153775 6.60953609,19.5153775 C6.7686529,19.5153775 6.87804408,19.3960417 6.93771288,19.1573665 C6.99738169,18.9186912 7.08688356,18.7595768 7.20622117,18.6800184 L7.20622117,18.0236648 C7.26588998,18.0833336 7.33550254,18.1131676 7.41506095,18.1131676 C7.43495055,18.1131676 7.46478451,18.0932783 7.50456371,18.0534991 C7.54434292,18.0137199 7.57417687,18.0037752 7.59406647,18.0236648 C7.65373528,18.0435544 7.72832017,18.09825 7.81782338,18.1877532 C7.90732659,18.2772564 7.95207752,18.3717306 7.95207752,18.4711786 C7.79296071,18.4711786 7.69351419,18.4860956 7.65373498,18.51593 C7.61395578,18.5457644 7.59406647,18.6302939 7.59406647,18.7695212 L7.59406647,18.9485267 L7.86257476,18.7695212 C7.88246436,18.7496316 7.90235367,18.7546039 7.92224327,18.7844383 C7.94213287,18.8142727 7.95207752,18.8391343 7.95207752,18.8590239 C7.97196713,18.8789135 7.97693945,18.9286368 7.96699465,19.0081952 C7.95704985,19.0877536 7.95207752,19.1474215 7.95207752,19.1872007 C7.97196713,19.1872007 8.01671806,19.1772561 8.08633167,19.1573665 C8.15594527,19.1374769 8.21064086,19.1275322 8.25042006,19.1275322 C8.40953688,19.1673114 8.51395573,19.3512875 8.56367973,19.6794659 C8.61340374,20.0076444 8.64821002,20.3606795 8.66809962,20.7385819 C8.68798922,21.1164844 8.72279551,21.4595749 8.77251951,21.7678637 C8.82224352,22.0761525 8.92666236,22.2302946 9.08577918,22.2302946 C9.18522719,22.2302946 9.2448951,22.2004607 9.26478471,22.1407919 L9.9211383,22.1407919 C9.9211383,22.1209023 9.93108295,22.1109576 9.95097255,22.1109576 C9.97086215,22.1109576 9.99075146,22.101013 10.0106411,22.0811234 C10.0305307,22.0612338 10.0603646,22.0413445 10.1001438,22.0214549 L10.2194808,22.0214549 L10.4134035,22.2153775 C10.5029067,22.3048807 10.5576023,22.369521 10.5774919,22.4093002 C10.4780439,22.2302938 10.5078778,22.0860963 10.6669947,21.9767035 C10.8261115,21.8673107 10.9752812,21.8126151 11.1145085,21.8126151 C11.1542877,21.8126151 11.1990386,21.8175874 11.2487626,21.8275322 C11.2984866,21.837477 11.3233482,21.852394 11.3233482,21.8722836 C11.3631274,21.8722836 11.3929614,21.9170345 11.412851,22.0065377 C11.4327406,22.0960409 11.4426853,22.1606812 11.4426853,22.2004604 C11.5620229,22.1805708 11.6266631,22.1308475 11.6366079,22.0512891 C11.6465527,21.9717307 11.6913036,21.9120628 11.7708621,21.8722836 C11.8901997,22.05129 12.0393694,22.1407919 12.2183759,22.1407919 C12.3973823,22.1407919 12.5515244,22.0910686 12.6808068,21.9916206 C12.8100892,21.8921726 12.9642313,21.8424493 13.1432377,21.8424493 C13.1631273,21.8424493 13.202906,21.8474217 13.2625748,21.8573665 C13.3222436,21.8673113 13.3620222,21.8722836 13.3819118,21.8722836 L13.4415803,22.0214549 C13.4813595,22.0612341 13.5211381,22.0612341 13.5609173,22.0214549 C13.5808069,22.0214549 13.6006962,22.0115102 13.6205858,21.9916206 L13.6205858,21.6634438 C13.6802546,21.7231126 13.7598118,21.7529466 13.8592598,21.7529466 C13.9388183,21.7728362 14.0929604,21.7827808 14.3216908,21.7827808 C14.5504212,21.7827808 14.7045633,21.7728362 14.7841217,21.7529466 C14.7642321,21.7728362 14.7443428,21.8026701 14.7244532,21.8424493 C14.7045636,21.8822285 14.6846743,21.9120625 14.6647847,21.9319521 L14.694619,21.9916206 C14.794067,21.9916206 14.8587072,21.9468697 14.8885416,21.8573665 C14.918376,21.7678633 15.0128502,21.7231123 15.171967,21.7231123 C15.171967,21.8225603 15.15705,21.8921729 15.1272156,21.9319521 C15.0973812,21.9717313 15.0824643,22.0413439 15.0824643,22.1407919 C15.1819123,22.1407919 15.2714141,22.1557089 15.3509726,22.1855433 C15.430531,22.2153777 15.5200328,22.2302946 15.6194808,22.2302946 C15.7189288,22.2302946 15.7785968,22.2104053 15.7984864,22.1706261 C15.818376,22.1308469 15.8680992,22.1109576 15.9476576,22.1109576 C15.9675472,22.1109576 15.9874365,22.1209023 16.0073261,22.1407919 C16.0073261,22.1805711 16.0172708,22.210405 16.0371604,22.2302946 L16.0371604,22.2899632 C16.0371604,22.3098528 16.047105,22.3197974 16.0669947,22.3197974 C16.0868843,22.339687 16.1266629,22.369521 16.1863317,22.4093002 C16.2460005,22.4490794 16.2758344,22.4789133 16.2758344,22.4988029 L16.1863317,22.6778085 C16.1664421,22.7175877 16.1465528,22.7673109 16.1266632,22.8269797 C16.1067736,22.8866485 16.0868843,22.9363718 16.0669947,22.976151 L16.574177,22.976151 C16.574177,23.0557094 16.5542877,23.125322 16.5145085,23.1849908 C16.4747293,23.2446596 16.45484,23.3142721 16.45484,23.3938306 L16.45484,23.4236648 C16.5145088,23.463444 16.5841213,23.4883056 16.6636797,23.4982504 C16.7432381,23.5081952 16.8029061,23.5430015 16.8426853,23.6026703 C16.8227957,23.6026703 16.7879894,23.6175873 16.7382654,23.6474217 C16.6885414,23.6772561 16.6537351,23.7021178 16.6338455,23.7220074 L16.6338455,23.8115101 C16.6338455,23.8512893 16.6487625,23.9457635 16.6785969,24.0949355 C16.7084313,24.2441075 16.7332929,24.3385817 16.7531825,24.3783609 L16.7531825,24.4380295 C16.7531825,24.4778087 16.6835699,24.5076426 16.5443427,24.5275322 C16.4051155,24.5474218 16.2460011,24.5623388 16.0669947,24.5722836 L15.5299781,24.6021179 C15.3509717,24.6120627 15.2216912,24.6269796 15.1421328,24.6468692 L15.0824643,24.6468692 C15.0426851,24.6269796 14.9929618,24.587201 14.933293,24.5275322 C14.8736242,24.4678634 14.8239009,24.4380295 14.7841217,24.4380295 C14.7642321,24.4380295 14.7244535,24.4529464 14.6647847,24.4827808 C14.6051159,24.5126152 14.5553926,24.5275322 14.5156134,24.5275322 C14.4957238,24.5474218 14.4609176,24.5722834 14.4111935,24.6021179 C14.3614695,24.6319523 14.3266633,24.6468692 14.3067737,24.6468692 L14.2471051,24.6468692 C14.0482091,24.6468692 13.8841224,24.6070906 13.75484,24.5275322 C13.6255575,24.4479738 13.5012494,24.4081952 13.3819118,24.4081952 L13.3819118,24.5275322 C13.1034573,24.5275322 12.9642322,24.6667573 12.9642322,24.9452118 L12.9045637,24.9452118 C12.8846741,24.9253222 12.8399232,24.8855436 12.7703096,24.8258748 C12.700696,24.7662059 12.655945,24.736372 12.6360554,24.736372 C12.5962762,24.736372 12.5614699,24.7662059 12.5316355,24.8258748 C12.5018011,24.8855436 12.4769395,24.9253222 12.4570499,24.9452118 C12.3178227,24.9651014 12.2233485,24.9302951 12.1736245,24.8407919 C12.1239005,24.7512887 12.0841219,24.6518422 12.0542875,24.5424493 C12.0244531,24.4330565 11.9896468,24.3286377 11.9498676,24.2291897 C11.9100884,24.1297417 11.8404758,24.0800184 11.7410278,24.0800184 L11.7111935,24.0800184 C11.6913039,24.099908 11.6664423,24.114825 11.6366079,24.1247698 C11.6067735,24.1347146 11.5918565,24.1496316 11.5918565,24.1695212 C11.5918565,24.1894108 11.6067735,24.239134 11.6366079,24.3186924 C11.6664423,24.3982508 11.6913039,24.4380295 11.7111935,24.4380295 L11.5918565,24.4380295 C11.5520773,24.4380295 11.4924094,24.4131678 11.412851,24.3634438 C11.3332926,24.3137198 11.2736247,24.2888582 11.2338455,24.2888582 L11.05484,24.736372 C11.0150607,24.636924 10.9703098,24.5772561 10.9205858,24.5573665 C10.8708618,24.5374769 10.8062216,24.5275322 10.7266632,24.5275322 C10.5675463,24.5275322 10.4233489,24.5673108 10.2940665,24.6468692 C10.1647841,24.7264276 10.1001438,24.8457635 10.1001438,25.0048803 L10.0404753,24.9452118 L10.0404753,24.8855433 C10.0404753,24.7065368 10.1250049,24.5523947 10.2940665,24.4231123 C10.4631281,24.2938299 10.5874362,24.1496325 10.6669947,23.9905156 C10.6669947,23.970626 10.6371607,23.9308474 10.5774919,23.8711786 L10.4879891,23.8711786 C10.4680995,23.9109578 10.4233486,23.9656534 10.353735,24.035267 L10.2194808,24.1695212 L10.0404753,24.1695212 C9.9609169,24.2093004 9.9211383,24.2689683 9.9211383,24.3485267 C9.9211383,24.4280851 9.92611062,24.5126146 9.93605542,24.6021179 C9.94600022,24.6916211 9.9410279,24.7711783 9.9211383,24.8407919 C9.90124869,24.9104055 9.83163613,24.9452118 9.71229852,24.9452118 C9.63274011,24.9452118 9.5929615,24.9054332 9.5929615,24.8258748 C9.5929615,24.7463163 9.55318289,24.7065377 9.47362448,24.7065377 C9.35428687,24.7065377 9.26975733,24.771178 9.22003332,24.9004604 C9.17030932,25.0297428 9.13053071,25.1838849 9.10069631,25.3628913 C9.0708619,25.5418978 9.04600027,25.7159292 9.02611067,25.8849908 C9.00622107,26.0540524 8.96644246,26.1684159 8.90677366,26.2280847 C8.86699445,26.2678639 8.8371605,26.2877532 8.81727089,26.2877532 C8.79738129,26.3076428 8.77749199,26.3175875 8.75760239,26.3175875 L8.75760239,25.8700737 L8.66809962,25.8700737 C8.62832042,25.8700737 8.59848646,25.8651013 8.57859686,25.8551565 C8.55870726,25.8452117 8.53881795,25.8402394 8.51892835,25.8402394 C8.32003233,25.8800186 8.20069651,25.9496312 8.1609173,26.0490792 C8.1211381,26.1485272 8.10124879,26.2778077 8.10124879,26.4369245 C8.2006968,26.4369245 8.295171,26.4418968 8.38467421,26.4518416 C8.47417742,26.4617864 8.4890944,26.5463159 8.42942559,26.7054328 C8.5288736,26.6656536 8.61340314,26.6209026 8.68301675,26.5711786 C8.75263036,26.5214546 8.82721525,26.466759 8.90677366,26.4070902 C9.04600087,26.6457655 9.12555809,26.9192434 9.14544769,27.2275322 C9.16533729,27.535821 9.17528194,27.8291883 9.17528194,28.1076427 L9.17528194,28.5849908 C9.09572353,28.6844388 9.02611097,28.8087469 8.96644216,28.957919 C8.90677336,29.107091 8.8570501,29.2562608 8.81727089,29.4054328 C8.77749169,29.5546048 8.73771308,29.6838853 8.69793388,29.7932781 C8.65815467,29.9026709 8.62832072,29.9573665 8.60843111,29.9573665 C8.58854151,29.9772561 8.49903964,29.9822284 8.33992283,29.9722836 C8.18080601,29.9623388 8.08135949,29.9573665 8.04158029,29.9573665 C7.94213227,29.9772561 7.88246436,30.0617856 7.86257476,30.2109576 C7.84268516,30.3601296 7.7929619,30.4645485 7.71340349,30.5242173 C7.61395548,30.4247693 7.49461966,30.3104058 7.35539244,30.1811234 C7.21616522,30.051841 7.0968294,29.9872007 6.99738139,29.9872007 C6.99738139,30.2059863 7.00235372,30.3551561 7.01229852,30.4347145 C7.02224332,30.5142729 6.89793517,30.5739409 6.63937034,30.6137201 C6.59959114,30.4546032 6.57970183,30.3203504 6.57970183,30.2109576 L6.57970183,29.8081952 Z M6.75870736,28.6744935 C6.77859696,28.7739416 6.81837557,28.8684157 6.87804437,28.957919 C6.93771318,29.0474222 7.0371597,29.0921731 7.17638692,29.0921731 C7.17638692,28.9728355 7.17141459,28.8137211 7.16146979,28.614825 C7.15152499,28.415929 7.0769401,28.2667592 6.93771288,28.1673112 C6.91782328,28.2070904 6.9029063,28.29162 6.8929615,28.4209024 C6.8830167,28.5501848 6.83826577,28.6347143 6.75870736,28.6744935 Z M8.99627642,28.1673112 C8.99627642,28.1474216 8.98135944,28.137477 8.95152504,28.137477 C8.92169063,28.137477 8.90677366,28.1474216 8.90677366,28.1673112 C8.90677366,28.2070904 8.92169063,28.2269797 8.95152504,28.2269797 C8.98135944,28.2269797 8.99627642,28.2070904 8.99627642,28.1673112 Z M6.84821012,27.6302946 L6.93771288,27.6302946 L6.84821012,27.5407919 L6.84821012,27.6302946 Z M4.64047531,25.2137201 C4.5410273,25.2932785 4.49130404,25.392725 4.49130404,25.5120626 L4.5211383,25.5717311 C4.60069671,25.4921727 4.64047531,25.3927262 4.64047531,25.2733886 L4.64047531,25.2137201 Z M8.42942559,25.3927256 C8.4890944,25.3529464 8.52390068,25.3032231 8.53384548,25.2435543 C8.54379028,25.1838855 8.54876261,25.1341622 8.54876261,25.094383 L8.42942559,25.094383 L8.42942559,25.3927256 Z M12.5465527,24.4380295 C12.5067735,24.4380295 12.4868842,24.4728357 12.4868842,24.5424493 C12.4868842,24.6120629 12.5067735,24.6468692 12.5465527,24.6468692 C12.5863319,24.6468692 12.6062212,24.6120629 12.6062212,24.5424493 C12.6062212,24.4728357 12.5863319,24.4380295 12.5465527,24.4380295 Z M2.19406647,24.4678637 C2.31340409,24.4678637 2.373072,24.3684172 2.373072,24.1695212 L2.19406647,24.1695212 L2.19406647,24.4678637 Z M13.7399228,24.1695212 C13.7001436,24.1695212 13.6802543,24.2043274 13.6802543,24.2739411 C13.6802543,24.3435547 13.7001436,24.3783609 13.7399228,24.3783609 C13.7995916,24.3783609 13.8294256,24.3435547 13.8294256,24.2739411 C13.8294256,24.2043274 13.7995916,24.1695212 13.7399228,24.1695212 Z M1.77638692,23.7220074 L1.89572393,23.7220074 L1.89572393,23.5430018 L1.77638692,23.5430018 L1.77638692,23.7220074 Z M11.4426853,23.6026703 C11.4029061,23.5827807 11.3830167,23.5976977 11.3830167,23.6474217 C11.3830167,23.6971457 11.4029061,23.7220074 11.4426853,23.7220074 C11.4824645,23.6822281 11.4824645,23.6424495 11.4426853,23.6026703 Z M3.41727089,23.2446593 L3.50677366,23.334162 L3.56644216,23.334162 L3.50677366,23.1551565 L3.41727089,23.2446593 Z M15.5299781,23.334162 L15.6194808,23.2446593 L15.5299781,23.2446593 L15.5299781,23.334162 Z M1.89572393,22.976151 C1.91561353,22.9363718 1.90069656,22.9164825 1.85097255,22.9164825 C1.80124855,22.9164825 1.77638692,22.9363718 1.77638692,22.976151 C1.81616612,23.0159302 1.85594473,23.0159302 1.89572393,22.976151 Z M12.0692046,22.7673112 C12.0294254,22.7673112 12.0095361,22.8021175 12.0095361,22.8717311 C12.0095361,22.9413447 12.0294254,22.976151 12.0692046,22.976151 C12.1089838,22.976151 12.1288731,22.9413447 12.1288731,22.8717311 C12.1288731,22.8021175 12.1089838,22.7673112 12.0692046,22.7673112 Z M12.7255582,22.4391344 C12.7255582,22.459024 12.7205859,22.5186919 12.7106411,22.6181399 C12.7006963,22.717588 12.7355025,22.7673112 12.8150609,22.7673112 C12.9343986,22.7673112 13.0288728,22.7076433 13.0984864,22.5883057 C13.1681,22.4689681 13.2029063,22.3595769 13.2029063,22.2601289 C13.2029063,22.1606809 13.1332937,22.1109576 12.9940665,22.1109576 C12.9343977,22.1109576 12.8896467,22.11593 12.8598123,22.1258748 C12.8299779,22.1358196 12.785227,22.1606812 12.7255582,22.2004604 L12.7255582,22.4391344 Z M8.60843111,22.0214549 C8.56865191,22.0214549 8.54876261,22.0512888 8.54876261,22.1109576 C8.54876261,22.1706264 8.56865191,22.2004604 8.60843111,22.2004604 C8.64821032,22.2004604 8.66809962,22.1706264 8.66809962,22.1109576 C8.66809962,22.0512888 8.64821032,22.0214549 8.60843111,22.0214549 Z M6.63937034,20.7684162 C6.63937034,20.8678642 6.67417662,20.9175875 6.74379023,20.9175875 L7.11671841,20.9175875 C7.17638721,20.9175875 7.20622117,20.8678642 7.20622117,20.7684162 C7.20622117,20.7087474 7.16644256,20.6540518 7.08688415,20.6043278 C7.00732574,20.5546038 6.94765783,20.5297422 6.90787863,20.5297422 L6.84821012,20.5297422 L6.63937034,20.7385819 L6.63937034,20.7684162 Z M7.773072,20.2313996 L7.86257476,20.2313996 L7.86257476,20.1717311 L7.773072,20.1717311 L7.773072,20.2313996 Z M8.33992283,20.0822283 C8.30014362,20.0623387 8.28025432,20.0722834 8.28025432,20.1120626 C8.28025432,20.1518418 8.30014362,20.1717311 8.33992283,20.1717311 C8.37970203,20.1717311 8.39959134,20.1568141 8.39959134,20.1269797 C8.39959134,20.0971453 8.37970203,20.0822283 8.33992283,20.0822283 Z M7.95207752,19.5153775 C7.95207752,19.6148255 7.98191148,19.6744934 8.04158029,19.694383 L8.25042006,19.5153775 L7.95207752,19.5153775 Z M7.20622117,19.1275322 C7.18633157,19.1076426 7.17638692,19.1374766 7.17638692,19.217035 C7.17638692,19.2965934 7.18633157,19.3264273 7.20622117,19.3065377 C7.24600037,19.3065377 7.26588968,19.2866484 7.26588968,19.2468692 C7.26588968,19.20709 7.24600037,19.1673114 7.20622117,19.1275322 Z M7.47472946,18.2921731 C7.51450866,18.2921731 7.53439797,18.2772561 7.53439797,18.2474217 C7.53439797,18.2175873 7.51450866,18.2026703 7.47472946,18.2026703 L7.47472946,18.2921731 Z"></path>
                </g>
            </g>
        </g>
    </g>
</svg>